<svg width="204" height="32" viewBox="0 0 204 32" fill="none" xmlns="http://www.w3.org/2000/svg">
<path d="M20.252 6.636C18.292 4.48 15.562 3.402 12.062 3.402C9.15 3.402 7.022 3.962 5.678 5.082C4.362 6.174 3.704 7.658 3.704 9.534C3.704 10.794 4.012 11.802 4.628 12.558C5.244 13.286 6.182 13.874 7.442 14.322C8.73 14.77 10.396 15.204 12.44 15.624C14.596 16.072 16.458 16.604 18.026 17.22C19.594 17.808 20.798 18.62 21.638 19.656C22.506 20.692 22.94 22.092 22.94 23.856C22.94 26.488 21.96 28.462 20 29.778C18.04 31.094 15.464 31.752 12.272 31.752C7.652 31.752 3.718 30.268 0.47 27.3L1.604 25.578C2.836 26.866 4.362 27.902 6.182 28.686C8.03 29.47 10.088 29.862 12.356 29.862C14.932 29.862 16.962 29.386 18.446 28.434C19.93 27.454 20.672 26.012 20.672 24.108C20.672 22.792 20.322 21.728 19.622 20.916C18.95 20.104 17.914 19.446 16.514 18.942C15.142 18.41 13.406 17.92 11.306 17.472C9.206 17.024 7.428 16.52 5.972 15.96C4.516 15.4 3.41 14.644 2.654 13.692C1.898 12.74 1.52 11.452 1.52 9.828C1.52 8.036 1.954 6.524 2.822 5.292C3.718 4.032 4.95 3.08 6.518 2.436C8.114 1.792 9.962 1.47 12.062 1.47C13.994 1.47 15.716 1.764 17.228 2.352C18.74 2.912 20.112 3.78 21.344 4.956L20.252 6.636ZM25.8997 25.2C25.8997 23.912 26.2777 22.778 27.0337 21.798C27.8177 20.818 28.8957 20.062 30.2677 19.53C31.6677 18.97 33.2637 18.69 35.0557 18.69C36.1757 18.69 37.3377 18.788 38.5417 18.984C39.7737 19.18 40.8517 19.446 41.7757 19.782V17.724C41.7757 15.708 41.1877 14.098 40.0117 12.894C38.8357 11.69 37.2397 11.088 35.2237 11.088C34.1317 11.088 32.9977 11.312 31.8217 11.76C30.6457 12.208 29.4417 12.852 28.2097 13.692L27.3277 12.18C30.1837 10.248 32.8857 9.282 35.4337 9.282C38.0097 9.282 40.0537 10.052 41.5657 11.592C43.1057 13.132 43.8757 15.232 43.8757 17.892V28.728C43.8757 29.4 44.1837 29.75 44.7997 29.778V31.5C44.2677 31.556 43.9177 31.57 43.7497 31.542C43.2177 31.486 42.7977 31.262 42.4897 30.87C42.2097 30.478 42.0557 30.072 42.0277 29.652V27.93C41.0197 29.19 39.7177 30.17 38.1217 30.87C36.5537 31.57 34.9017 31.92 33.1657 31.92C31.7937 31.92 30.5477 31.626 29.4277 31.038C28.3357 30.422 27.4677 29.61 26.8237 28.602C26.2077 27.594 25.8997 26.46 25.8997 25.2ZM40.9357 27.006C41.4957 26.306 41.7757 25.648 41.7757 25.032V21.42C39.7597 20.636 37.5897 20.244 35.2657 20.244C33.0537 20.244 31.2757 20.692 29.9317 21.588C28.5877 22.456 27.9157 23.618 27.9157 25.074C27.9157 25.998 28.1537 26.852 28.6297 27.636C29.1057 28.42 29.7637 29.05 30.6037 29.526C31.4717 30.002 32.4657 30.24 33.5857 30.24C35.1537 30.24 36.5957 29.946 37.9117 29.358C39.2277 28.742 40.2357 27.958 40.9357 27.006ZM68.1143 31.5H66.0143V19.32C66.0143 16.52 65.6083 14.476 64.7963 13.188C63.9843 11.872 62.7243 11.214 61.0163 11.214C59.7843 11.214 58.5803 11.508 57.4043 12.096C56.2283 12.684 55.1923 13.496 54.2963 14.532C53.4003 15.54 52.7563 16.688 52.3643 17.976V31.5H50.2643V9.66H52.2383V14.868C53.1063 13.216 54.3943 11.872 56.1023 10.836C57.8383 9.8 59.6723 9.282 61.6043 9.282C63.9843 9.282 65.6643 10.122 66.6443 11.802C67.6243 13.482 68.1143 15.862 68.1143 18.942V31.5ZM72.9515 20.622C72.9515 18.606 73.3855 16.744 74.2535 15.036C75.1215 13.3 76.3115 11.914 77.8235 10.878C79.3355 9.814 81.0575 9.282 82.9895 9.282C84.8935 9.282 86.5735 9.786 88.0295 10.794C89.5135 11.802 90.6755 13.006 91.5155 14.406V0.839999H93.6155V28.728C93.6155 29.4 93.9095 29.75 94.4975 29.778V31.5C94.0495 31.556 93.7135 31.57 93.4895 31.542C92.9855 31.458 92.5655 31.22 92.2295 30.828C91.8935 30.436 91.7255 30.016 91.7255 29.568V27.132C90.8295 28.588 89.6255 29.75 88.1135 30.618C86.6295 31.486 85.0755 31.92 83.4515 31.92C81.9115 31.92 80.4975 31.612 79.2095 30.996C77.9495 30.352 76.8435 29.498 75.8915 28.434C74.9675 27.37 74.2395 26.166 73.7075 24.822C73.2035 23.478 72.9515 22.078 72.9515 20.622ZM91.5155 24.15V16.968C91.1235 15.904 90.4935 14.938 89.6255 14.07C88.7575 13.174 87.7775 12.474 86.6855 11.97C85.5935 11.438 84.5155 11.172 83.4515 11.172C81.7715 11.172 80.3015 11.634 79.0415 12.558C77.7815 13.454 76.8015 14.63 76.1015 16.086C75.4295 17.542 75.0935 19.068 75.0935 20.664C75.0935 22.316 75.4855 23.856 76.2695 25.284C77.0535 26.712 78.1035 27.86 79.4195 28.728C80.7355 29.596 82.2055 30.03 83.8295 30.03C84.5855 30.03 85.3835 29.876 86.2235 29.568C87.0915 29.26 87.9035 28.84 88.6595 28.308C89.4435 27.748 90.0875 27.118 90.5915 26.418C91.1235 25.69 91.4315 24.934 91.5155 24.15ZM118.279 6.636C116.319 4.48 113.589 3.402 110.089 3.402C107.177 3.402 105.049 3.962 103.705 5.082C102.389 6.174 101.731 7.658 101.731 9.534C101.731 10.794 102.039 11.802 102.655 12.558C103.271 13.286 104.209 13.874 105.469 14.322C106.757 14.77 108.423 15.204 110.467 15.624C112.623 16.072 114.485 16.604 116.053 17.22C117.621 17.808 118.825 18.62 119.665 19.656C120.533 20.692 120.967 22.092 120.967 23.856C120.967 26.488 119.987 28.462 118.027 29.778C116.067 31.094 113.491 31.752 110.299 31.752C105.679 31.752 101.745 30.268 98.4973 27.3L99.6313 25.578C100.863 26.866 102.389 27.902 104.209 28.686C106.057 29.47 108.115 29.862 110.383 29.862C112.959 29.862 114.989 29.386 116.473 28.434C117.957 27.454 118.699 26.012 118.699 24.108C118.699 22.792 118.349 21.728 117.649 20.916C116.977 20.104 115.941 19.446 114.541 18.942C113.169 18.41 111.433 17.92 109.333 17.472C107.233 17.024 105.455 16.52 103.999 15.96C102.543 15.4 101.437 14.644 100.681 13.692C99.9253 12.74 99.5473 11.452 99.5473 9.828C99.5473 8.036 99.9813 6.524 100.849 5.292C101.745 4.032 102.977 3.08 104.545 2.436C106.141 1.792 107.989 1.47 110.089 1.47C112.021 1.47 113.743 1.764 115.255 2.352C116.767 2.912 118.139 3.78 119.371 4.956L118.279 6.636ZM157.821 31.5H155.721V19.32C155.721 16.576 155.287 14.546 154.419 13.23C153.579 11.886 152.277 11.214 150.513 11.214C148.693 11.214 147.097 11.858 145.725 13.146C144.353 14.406 143.387 16.03 142.827 18.018V31.5H140.727V19.32C140.727 16.52 140.307 14.476 139.467 13.188C138.627 11.872 137.325 11.214 135.561 11.214C133.769 11.214 132.173 11.844 130.773 13.104C129.401 14.336 128.421 15.96 127.833 17.976V31.5H125.733V9.66H127.707V14.868C128.603 13.104 129.779 11.732 131.235 10.752C132.719 9.772 134.329 9.282 136.065 9.282C137.913 9.282 139.411 9.828 140.559 10.92C141.707 12.012 142.393 13.44 142.617 15.204C144.689 11.256 147.545 9.282 151.185 9.282C153.565 9.282 155.259 10.136 156.267 11.844C157.303 13.524 157.821 15.89 157.821 18.942V31.5ZM164.165 4.704V0.839999H166.265V4.704H164.165ZM164.165 31.5V9.66H166.265V31.5H164.165ZM173.028 0.839999H175.17V27.174C175.17 28.182 175.38 28.882 175.8 29.274C176.22 29.638 176.766 29.82 177.438 29.82C177.886 29.82 178.348 29.778 178.824 29.694C179.3 29.61 179.72 29.498 180.084 29.358L180.504 31.08C180.028 31.248 179.44 31.402 178.74 31.542C178.04 31.682 177.438 31.752 176.934 31.752C175.758 31.752 174.806 31.402 174.078 30.702C173.378 29.974 173.028 29.008 173.028 27.804V0.839999ZM193.011 31.92C190.967 31.92 189.119 31.402 187.467 30.366C185.843 29.33 184.555 27.944 183.603 26.208C182.679 24.472 182.217 22.568 182.217 20.496C182.217 18.452 182.679 16.59 183.603 14.91C184.527 13.202 185.801 11.844 187.425 10.836C189.049 9.8 190.869 9.282 192.885 9.282C194.957 9.282 196.791 9.8 198.387 10.836C200.011 11.844 201.285 13.202 202.209 14.91C203.133 16.618 203.595 18.48 203.595 20.496C203.595 20.832 203.581 21.14 203.553 21.42H184.401C184.513 23.1 184.975 24.612 185.787 25.956C186.599 27.272 187.635 28.322 188.895 29.106C190.183 29.862 191.583 30.24 193.095 30.24C194.607 30.24 196.035 29.848 197.379 29.064C198.723 28.28 199.661 27.272 200.193 26.04L202.041 26.544C201.621 27.58 200.949 28.504 200.025 29.316C199.129 30.128 198.065 30.772 196.833 31.248C195.629 31.696 194.355 31.92 193.011 31.92ZM184.317 19.782H201.579C201.467 18.074 201.005 16.562 200.193 15.246C199.409 13.902 198.387 12.866 197.127 12.138C195.867 11.382 194.467 11.004 192.927 11.004C191.387 11.004 189.987 11.382 188.727 12.138C187.467 12.894 186.445 13.944 185.661 15.288C184.877 16.604 184.429 18.102 184.317 19.782Z" fill="#FBF2DA"/>
</svg>
